<?xml version="1.0" encoding="iso-8859-1"?>
<!-- Generator: Adobe Illustrator 16.0.0, SVG Export Plug-In . SVG Version: 6.00 Build 0)  -->
<!DOCTYPE svg PUBLIC "-//W3C//DTD SVG 1.1//EN" "http://www.w3.org/Graphics/SVG/1.1/DTD/svg11.dtd">
<svg xmlns="http://www.w3.org/2000/svg" xmlns:xlink="http://www.w3.org/1999/xlink" version="1.1" id="Capa_1" x="0px" y="0px" width="512px" height="512px" viewBox="0 0 430.602 430.602" style="enable-background:new 0 0 430.602 430.602;" xml:space="preserve">
<g>
	<path d="M215.301,60c41.482,0,80.481,16.154,109.814,45.486c29.332,29.332,45.485,68.332,45.485,109.814   c0,41.481-16.153,80.481-45.485,109.813c-29.333,29.332-68.332,45.486-109.814,45.486c-41.482,0-80.481-16.154-109.814-45.486   C76.155,295.781,60.001,256.781,60.001,215.3c0-41.482,16.154-80.482,45.486-109.814C134.82,76.155,173.819,60,215.301,60    M215.301,0C96.394,0,0,96.394,0,215.301s96.394,215.301,215.301,215.301s215.301-96.394,215.301-215.301S334.208,0,215.301,0   L215.301,0z" fill="#FFFFFF"/>
</g>
<g>
</g>
<g>
</g>
<g>
</g>
<g>
</g>
<g>
</g>
<g>
</g>
<g>
</g>
<g>
</g>
<g>
</g>
<g>
</g>
<g>
</g>
<g>
</g>
<g>
</g>
<g>
</g>
<g>
</g>
</svg>